<?xml version="1.0" standalone="no"?>
<!DOCTYPE svg PUBLIC "-//W3C//DTD SVG 20010904//EN"
 "http://www.w3.org/TR/2001/REC-SVG-20010904/DTD/svg10.dtd">
<svg version="1.0" xmlns="http://www.w3.org/2000/svg"
 width="800.000000pt" height="798.000000pt" viewBox="0 0 800.000000 798.000000"
 preserveAspectRatio="xMidYMid meet">
<metadata>
Created by potrace 1.15, written by Peter Selinger 2001-2017
</metadata>
<g transform="translate(0.000000,798.000000) scale(0.100000,-0.100000)"
fill="#FFFAFA" stroke="none">
<path d="M3695 7969 c-497 -37 -1001 -174 -1450 -394 -162 -79 -425 -229 -425
-242 0 -3 21 -3 48 1 26 3 123 11 216 17 431 25 887 -53 1275 -218 228 -97
388 -188 716 -406 333 -222 389 -241 495 -171 122 79 239 222 294 358 29 74
56 212 56 291 0 139 -52 314 -138 464 -52 92 -179 258 -202 266 -92 30 -652
52 -885 34z"/>
<path d="M4807 7833 c67 -102 169 -317 198 -416 69 -244 52 -454 -55 -667 -44
-87 -128 -207 -209 -299 -31 -35 -75 -85 -98 -111 l-43 -48 301 -282 c206
-192 304 -278 312 -272 7 5 131 103 277 219 572 452 845 640 1169 803 66 32
122 64 125 69 8 12 -156 164 -309 286 -442 354 -956 605 -1530 750 -196 49
-193 50 -138 -32z"/>
<path d="M1860 7260 c-163 -23 -210 -39 -292 -101 -262 -200 -502 -436 -712
-702 -378 -477 -646 -1047 -771 -1640 -29 -137 -68 -378 -62 -384 3 -2 15 24
27 57 123 329 498 602 1120 815 340 116 665 197 1475 365 669 140 895 196
1140 288 290 108 452 245 457 387 4 116 -264 337 -637 525 -353 178 -717 299
-1100 366 -122 21 -190 27 -365 29 -118 2 -244 0 -280 -5z"/>
<path d="M6615 6532 c-384 -257 -655 -455 -970 -707 -186 -149 -285 -235 -285
-247 0 -6 467 -602 510 -651 4 -5 45 10 91 34 207 104 469 193 664 225 131 22
333 22 448 0 326 -62 603 -265 830 -607 28 -43 53 -77 54 -75 2 2 -8 70 -22
152 -126 732 -444 1396 -941 1967 -47 53 -88 97 -92 97 -4 0 -133 -85 -287
-188z"/>
<path d="M4420 6128 c-25 -22 -90 -71 -146 -108 -265 -175 -609 -310 -1096
-429 -212 -52 -313 -74 -893 -191 -545 -111 -847 -187 -1130 -287 -548 -193
-899 -452 -1111 -819 l-46 -79 6 -295 c5 -308 16 -432 61 -675 102 -554 343
-1121 673 -1580 106 -149 193 -255 207 -255 5 0 30 26 55 58 140 179 524 638
809 967 914 1053 1991 2116 3113 3070 l118 100 -282 282 c-156 156 -285 283
-288 283 -3 -1 -25 -19 -50 -42z"/>
<path d="M5070 5328 c-620 -473 -1128 -918 -1743 -1528 -671 -663 -1277 -1331
-2121 -2333 l-159 -189 109 -110 c626 -632 1445 -1038 2327 -1152 l118 -16 52
26 c430 217 703 667 915 1509 59 233 88 369 212 980 214 1058 370 1534 631
1916 78 113 181 230 268 304 39 33 69 65 67 71 -9 24 -510 634 -520 633 -6 0
-76 -50 -156 -111z"/>
<path d="M6630 5064 c-14 -2 -59 -9 -100 -15 -161 -24 -314 -99 -404 -199 -44
-50 -48 -58 -43 -93 8 -60 52 -141 225 -413 385 -607 536 -896 672 -1289 192
-558 220 -1134 76 -1600 -8 -27 -14 -50 -12 -52 1 -2 27 27 57 65 423 525 705
1136 823 1782 52 289 60 385 61 725 l0 320 -32 60 c-191 359 -539 609 -962
689 -83 16 -313 29 -361 20z"/>
<path d="M5769 4569 c-178 -63 -321 -244 -452 -575 -119 -298 -179 -534 -392
-1559 -198 -948 -329 -1393 -525 -1785 -77 -155 -130 -244 -208 -350 -57 -77
-190 -217 -252 -263 l-35 -27 145 0 c875 0 1798 338 2484 909 213 177 305 270
342 343 230 457 174 1197 -152 2020 -175 444 -402 847 -626 1113 -111 132
-159 171 -225 183 -42 7 -62 6 -104 -9z"/>
</g>
</svg>
